<?xml version="1.0" encoding="UTF-8" standalone="no"?>
<!-- Created with Inkscape (http://www.inkscape.org/) -->
<svg
   xmlns:svg="http://www.w3.org/2000/svg"
   xmlns="http://www.w3.org/2000/svg"
   version="1.0"
   width="828"
   height="185"
   id="svg2">
  <defs
     id="defs4">
    <clipPath
       id="clipPath2488">
      <path
         d="M -663.30701,-28.3465 L 623.62195,-28.3465 L 623.62195,822.04748 L -663.30701,822.04748 L -663.30701,-28.3465 z"
         id="path2490" />
    </clipPath>
    <clipPath
       id="clipPath2458">
      <path
         d="M 0,0 L 595.27301,0 L 595.27301,793.70099 L 0,793.70099 L 0,0 z"
         id="path2460" />
    </clipPath>
  </defs>
  <g
     transform="translate(104.03356,-222.54172)"
     id="layer1">
    <g
       transform="matrix(6.533948,0,0,6.533948,-3890.4287,-1221.8691)"
       id="g2852">
      <path
         d="M 584.05404,224.65501 C 584.069,225.12125 584.15902,227.93123 584.19152,228.975 C 586.41031,227.52748 588.88283,226.70251 591.25909,226.70251 C 595.38903,226.70251 597.15157,228.4025 597.15157,232.38878 C 597.15157,232.50505 597.10535,232.61629 597.02279,232.69754 C 596.94162,232.78001 596.83022,232.82503 596.71411,232.82503 L 595.67529,232.82129 C 591.37398,232.8013 586.02273,232.7775 583.26409,235.52378 C 582.01028,236.77004 581.40283,238.46003 581.40283,240.69124 C 581.40283,245.13498 585.44656,247.46004 589.44024,247.46004 C 592.35651,247.46004 595.19402,245.86878 596.50277,243.5 C 596.58028,243.3613 596.72647,243.27379 596.88531,243.27379 L 596.98907,243.27379 C 597.22528,243.27379 597.41906,243.46124 597.42532,243.69874 L 597.43906,244.21503 C 597.46026,245.09249 597.49779,245.99253 597.62032,246.87624 L 602.04156,246.87624 L 602.04156,232.76499 C 602.04156,225.81376 599.1366,222.97754 592.01272,222.97754 C 589.42773,222.97754 586.41397,223.62375 584.05404,224.65501 M 586.53283,240.31374 C 586.53283,237.24626 589.04657,235.69124 594.00399,235.69124 L 596.71411,235.69124 C 596.95535,235.69124 597.15157,235.88754 597.15157,236.12749 C 597.15157,239.80623 595.52148,243.73628 590.95026,243.73628 C 588.18536,243.73628 586.53283,242.4563 586.53283,240.31374"
         id="path2462"
         style="fill:#ffffff;fill-opacity:1;fill-rule:nonzero;stroke:none" />
      <path
         d="M 604.38943,230.09004 C 604.38943,234.80379 607.78939,235.80125 610.78942,236.6813 C 613.12692,237.36628 615.33441,238.01378 615.33441,240.34875 C 615.33441,242.68876 613.02942,243.73628 610.74563,243.73628 C 608.89947,243.73628 606.95321,243.24876 604.95691,242.33378 C 604.88824,243.20879 604.66821,245.96758 604.62442,246.52879 C 607.05941,247.14754 609.27193,247.46004 611.36438,247.46004 C 616.04562,247.46004 621.04822,245.49128 621.04822,239.97003 C 621.04822,235.03251 617.43326,233.92008 614.24326,232.9413 C 612.11449,232.28631 610.10446,231.67001 610.10446,229.81508 C 610.10446,227.52 612.24313,226.70251 614.24569,226.70251 C 616.11062,226.70251 617.60689,226.96878 619.51943,227.61751 C 619.58688,226.83626 619.80188,224.35129 619.85071,223.7813 C 617.97937,223.37251 615.79187,222.97754 613.42324,222.97754 C 609.05572,222.97754 604.38943,224.84629 604.38943,230.09004"
         id="path2464"
         style="fill:#ffffff;fill-opacity:1;fill-rule:nonzero;stroke:none" />
      <path
         d="M 623.39318,235.09889 C 623.39318,242.83891 627.68074,247.46011 634.86199,247.46011 C 637.19948,247.46011 639.06686,247.22513 640.72076,246.74265 C 640.69192,246.20385 640.54193,243.35764 640.49692,242.48391 C 639.01941,243.07016 637.40701,243.42638 636.06194,243.42638 C 630.93438,243.42638 629.10699,239.12385 629.10699,235.09889 C 629.10699,231.05638 631.21576,226.97641 635.92568,226.97641 C 637.36322,226.97641 638.59567,227.22016 639.84323,227.72013 C 639.93447,226.90141 640.22698,224.25141 640.28817,223.69143 C 638.63061,223.21885 636.78948,222.97761 634.65569,222.97761 C 627.81442,222.97761 623.39318,227.73515 623.39318,235.09889"
         id="path2466"
         style="fill:#ffffff;fill-opacity:1;fill-rule:nonzero;stroke:none" />
      <path
         d="M 642.02111,235.37363 C 642.02111,242.60363 646.93368,247.45989 654.24493,247.45989 C 661.57739,247.45989 666.50368,242.60363 666.50368,235.37363 C 666.50368,227.95984 661.57739,222.9786 654.24493,222.9786 C 646.93368,222.9786 642.02111,227.95984 642.02111,235.37363 M 647.73614,234.65234 C 647.73614,230.95613 649.77242,226.9774 654.24493,226.9774 C 658.76611,226.9774 660.78988,230.83239 660.78988,234.65234 C 660.78988,240.31114 658.46489,243.42736 654.24493,243.42736 C 650.10858,243.42736 647.73614,240.22859 647.73614,234.65234"
         id="path2468"
         style="fill:#ffffff;fill-opacity:1;fill-rule:nonzero;stroke:none" />
      <path
         d="M 689.90457,226.99151 C 689.82949,227.14151 689.67583,227.23398 689.50952,227.23276 C 689.34213,227.23024 689.19076,227.13404 689.11828,226.98274 C 687.83075,224.25028 685.66583,222.97776 682.30828,222.97776 C 679.582,222.97776 677.11328,224.34526 675.53582,226.72776 C 675.45587,226.8503 675.31961,226.924 675.17206,226.924 L 675.06952,226.924 C 674.82827,226.924 674.63327,226.72776 674.63327,226.48775 L 674.63327,223.52778 L 669.60458,223.52778 L 669.60458,246.87654 L 675.04465,246.87654 L 675.04465,235.57901 C 675.04465,228.46903 677.837,226.97649 680.18075,226.97649 C 684.25454,226.97649 684.25454,230.68651 684.25454,232.90278 L 684.25454,246.87654 L 689.66088,246.87654 L 689.66088,235.57901 C 689.66088,228.46903 692.47338,226.97649 694.83208,226.97649 C 698.87078,226.97649 698.87078,230.68651 698.87078,232.90278 L 698.87078,246.87654 L 704.31085,246.87654 L 704.31085,232.0453 C 704.31085,225.85901 702.01837,222.97776 697.09711,222.97776 C 693.94586,222.97776 691.12328,224.554 689.90457,226.99151"
         id="path2470"
         style="fill:#ffffff;fill-opacity:1;fill-rule:nonzero;stroke:none" />
      <path
         d="M 597.22893,247.31301 C 597.02264,246.11178 597.02264,244.91174 596.98892,243.71179 L 596.88516,243.71179 C 595.44397,246.31799 592.39145,247.89674 589.44024,247.89674 C 585.18517,247.89674 580.96643,245.35799 580.96643,240.69178 C 580.96643,231.83923 590.47021,232.38801 596.71396,232.38801 C 596.71396,228.54555 594.99887,227.1393 591.25893,227.1393 C 588.58269,227.1393 585.94018,228.16805 583.77892,229.7468 L 583.60772,224.36051 C 586.07766,223.22801 589.30398,222.54175 592.01394,222.54175 C 599.25271,222.54175 602.47888,225.42299 602.47888,232.76551 L 602.47888,247.31301 L 597.22893,247.31301 z M 594.00399,236.12803 C 591.19012,236.12803 586.97015,236.60799 586.97015,240.31428 C 586.97015,242.57929 589.02887,243.29928 590.95026,243.29928 C 595.13649,243.29928 596.71396,239.79929 596.71396,236.12803 L 594.00399,236.12803 z"
         id="path2472"
         style="fill:#ed1c24;fill-opacity:1;fill-rule:nonzero;stroke:none" />
      <path
         d="M 611.36438,247.8969 C 608.92816,247.8969 606.49193,247.48438 604.15933,246.86693 L 604.57056,241.68565 C 606.49193,242.64688 608.58438,243.29943 610.74563,243.29943 C 612.59942,243.29943 614.89816,242.51061 614.89816,240.34814 C 614.89816,235.61441 603.95318,238.83814 603.95318,230.09065 C 603.95318,224.70315 608.72186,222.5419 613.42309,222.5419 C 615.78942,222.5419 618.02057,222.9194 620.31808,223.43316 L 619.90686,228.20314 C 617.91681,227.48185 616.37307,227.13938 614.24692,227.13938 C 612.53061,227.13938 610.54056,227.79061 610.54056,229.81561 C 610.54056,233.65815 621.48568,231.22186 621.48568,239.97064 C 621.48568,245.70063 616.37307,247.8969 611.36438,247.8969"
         id="path2474"
         style="fill:#ed1c24;fill-opacity:1;fill-rule:nonzero;stroke:none" />
      <path
         d="M 634.86169,247.8969 C 627.03912,247.8969 622.95663,242.57814 622.95663,235.09943 C 622.95663,227.96311 627.21047,222.5419 634.65677,222.5419 C 636.71548,222.5419 638.77297,222.7469 640.76425,223.36565 L 640.21417,228.34063 C 638.80792,227.68815 637.46927,227.41311 635.92538,227.41311 C 631.53421,227.41311 629.54293,231.15313 629.54293,235.09943 C 629.54293,239.25065 631.43167,242.99066 636.06302,242.99066 C 637.64168,242.99066 639.45916,242.51061 640.90051,241.85815 L 641.17547,247.07315 C 639.11676,247.72561 636.98922,247.8969 634.86169,247.8969"
         id="path2476"
         style="fill:#ed1c24;fill-opacity:1;fill-rule:nonzero;stroke:none" />
      <path
         d="M 654.24508,247.8969 C 646.76507,247.8969 641.58502,242.8869 641.58502,235.37316 C 641.58502,227.82564 646.66253,222.5419 654.24508,222.5419 C 661.86257,222.5419 666.94009,227.79061 666.94009,235.37316 C 666.94009,242.92063 661.72509,247.8969 654.24508,247.8969 M 654.24508,227.41311 C 650.16259,227.41311 648.17254,230.9469 648.17254,234.65318 C 648.17254,238.66693 649.47641,242.99066 654.24508,242.99066 C 659.08257,242.99066 660.35257,238.70188 660.35257,234.65318 C 660.35257,230.91318 658.3613,227.41311 654.24508,227.41311"
         id="path2478"
         style="fill:#ed1c24;fill-opacity:1;fill-rule:nonzero;stroke:none" />
      <path
         d="M 698.43408,247.31301 L 698.43408,232.903 C 698.43408,230.26178 698.26287,227.41304 694.83163,227.41304 C 690.64661,227.41304 690.0979,232.42304 690.0979,235.57924 L 690.0979,247.31301 L 683.81783,247.31301 L 683.81783,232.903 C 683.81783,230.22676 683.64786,227.41304 680.18152,227.41304 C 675.99663,227.41304 675.48151,232.42304 675.48151,235.57924 L 675.48151,247.31301 L 669.16787,247.31301 L 669.16787,223.09053 L 675.06906,223.09053 L 675.06906,226.48675 L 675.17282,226.48675 C 676.78414,224.05176 679.39278,222.54175 682.30782,222.54175 C 685.60281,222.54175 688.07291,223.74178 689.5141,226.79551 C 690.92035,223.98301 694.04153,222.54175 697.09664,222.54175 C 703.1016,222.54175 704.74786,226.76179 704.74786,232.04554 L 704.74786,247.31301 L 698.43408,247.31301 z"
         id="path2480"
         style="fill:#ed1c24;fill-opacity:1;fill-rule:nonzero;stroke:none" />
    </g>
  </g>
</svg>
